<mxfile host="65bd71144e">
    <diagram id="jrw65HoeUE7VaoGPchMV" name="Page-1">
        <mxGraphModel dx="1749" dy="387" grid="1" gridSize="10" guides="1" tooltips="1" connect="1" arrows="1" fold="1" page="1" pageScale="1" pageWidth="850" pageHeight="1100" math="0" shadow="0">
            <root>
                <mxCell id="0"/>
                <mxCell id="1" parent="0"/>
                <mxCell id="45" style="edgeStyle=orthogonalEdgeStyle;html=1;entryX=0;entryY=0.5;entryDx=0;entryDy=0;entryPerimeter=0;fontColor=#0000FF;exitX=0.5;exitY=0;exitDx=0;exitDy=0;" parent="1" source="57" target="44" edge="1">
                    <mxGeometry relative="1" as="geometry"/>
                </mxCell>
                <mxCell id="19" value="Event Streams - Broker" style="rounded=0;whiteSpace=wrap;html=1;fillColor=#dae8fc;strokeColor=#6c8ebf;verticalAlign=bottom;sketch=1;fontColor=#0000FF;" parent="1" vertex="1">
                    <mxGeometry x="-530" y="415" width="530" height="115" as="geometry"/>
                </mxCell>
                <mxCell id="47" style="edgeStyle=orthogonalEdgeStyle;html=1;entryX=0;entryY=0.5;entryDx=0;entryDy=0;entryPerimeter=0;fontColor=#0000FF;" parent="1" source="2" target="42" edge="1">
                    <mxGeometry relative="1" as="geometry"/>
                </mxCell>
                <mxCell id="2" value="Event Streams - Broker" style="rounded=0;whiteSpace=wrap;html=1;fillColor=#dae8fc;strokeColor=#6c8ebf;verticalAlign=bottom;sketch=1;fontColor=#0000FF;" parent="1" vertex="1">
                    <mxGeometry x="-530" y="110" width="530" height="110" as="geometry"/>
                </mxCell>
                <mxCell id="4" style="edgeStyle=orthogonalEdgeStyle;html=1;entryX=0;entryY=0.5;entryDx=0;entryDy=0;fontSize=10;" parent="1" source="5" target="12" edge="1">
                    <mxGeometry relative="1" as="geometry"/>
                </mxCell>
                <mxCell id="5" value="" style="shape=cylinder3;whiteSpace=wrap;html=1;boundedLbl=1;backgroundOutline=1;size=4;fontSize=10;direction=south;fillColor=#fff2cc;strokeColor=#d6b656;" parent="1" vertex="1">
                    <mxGeometry x="-440" y="120" width="60" height="30" as="geometry"/>
                </mxCell>
                <mxCell id="17" style="edgeStyle=orthogonalEdgeStyle;html=1;" parent="1" source="7" target="8" edge="1">
                    <mxGeometry relative="1" as="geometry"/>
                </mxCell>
                <mxCell id="7" value="" style="shape=cylinder3;whiteSpace=wrap;html=1;boundedLbl=1;backgroundOutline=1;size=9.487257215711821;fontSize=10;" parent="1" vertex="1">
                    <mxGeometry x="-815" y="105" width="55" height="70" as="geometry"/>
                </mxCell>
                <mxCell id="29" style="edgeStyle=orthogonalEdgeStyle;html=1;entryX=0.5;entryY=1;entryDx=0;entryDy=0;entryPerimeter=0;fontColor=#0000FF;startArrow=none;" parent="1" source="24" target="5" edge="1">
                    <mxGeometry relative="1" as="geometry"/>
                </mxCell>
                <mxCell id="8" value="Change Data Capture" style="whiteSpace=wrap;html=1;aspect=fixed;fontSize=10;fillColor=#ffe6cc;strokeColor=#d79b00;sketch=1;shadow=0;" parent="1" vertex="1">
                    <mxGeometry x="-700" y="110" width="60" height="60" as="geometry"/>
                </mxCell>
                <mxCell id="10" value="Microservice Apps" style="rounded=0;whiteSpace=wrap;html=1;fontSize=10;fillColor=#f8cecc;strokeColor=#b85450;" parent="1" vertex="1">
                    <mxGeometry x="-820" y="230" width="80" height="60" as="geometry"/>
                </mxCell>
                <mxCell id="11" style="edgeStyle=orthogonalEdgeStyle;html=1;entryX=0.5;entryY=1;entryDx=0;entryDy=0;entryPerimeter=0;fontSize=10;" parent="1" source="12" target="13" edge="1">
                    <mxGeometry relative="1" as="geometry"/>
                </mxCell>
                <mxCell id="12" value="Streaming apps" style="rounded=0;whiteSpace=wrap;html=1;fontSize=10;fillColor=#e1d5e7;strokeColor=#9673a6;sketch=1;" parent="1" vertex="1">
                    <mxGeometry x="-350" y="40" width="80" height="30" as="geometry"/>
                </mxCell>
                <mxCell id="13" value="" style="shape=cylinder3;whiteSpace=wrap;html=1;boundedLbl=1;backgroundOutline=1;size=4;fontSize=10;direction=south;fillColor=#e1d5e7;strokeColor=#9673a6;" parent="1" vertex="1">
                    <mxGeometry x="-135" y="457.5" width="60" height="30" as="geometry"/>
                </mxCell>
                <mxCell id="16" value="" style="shape=cylinder3;whiteSpace=wrap;html=1;boundedLbl=1;backgroundOutline=1;size=4;fontSize=10;direction=south;fillColor=#f8cecc;strokeColor=#b85450;sketch=1;" parent="1" vertex="1">
                    <mxGeometry x="-512" y="450" width="60" height="30" as="geometry"/>
                </mxCell>
                <mxCell id="18" value="Event Streams - Broker" style="rounded=0;whiteSpace=wrap;html=1;fillColor=#dae8fc;strokeColor=#6c8ebf;verticalAlign=bottom;sketch=1;fontColor=#0000FF;" parent="1" vertex="1">
                    <mxGeometry x="-530" y="250" width="530" height="110" as="geometry"/>
                </mxCell>
                <mxCell id="46" style="edgeStyle=orthogonalEdgeStyle;html=1;entryX=0;entryY=0;entryDx=0;entryDy=55.25637139214409;entryPerimeter=0;fontColor=#0000FF;" parent="1" source="18" target="43" edge="1">
                    <mxGeometry relative="1" as="geometry"/>
                </mxCell>
                <mxCell id="6" value="" style="shape=cylinder3;whiteSpace=wrap;html=1;boundedLbl=1;backgroundOutline=1;size=4;fontSize=10;direction=south;fillColor=#f8cecc;strokeColor=#b85450;" parent="1" vertex="1">
                    <mxGeometry x="-510" y="280" width="60" height="30" as="geometry"/>
                </mxCell>
                <mxCell id="9" style="edgeStyle=orthogonalEdgeStyle;html=1;entryX=0.5;entryY=1;entryDx=0;entryDy=0;entryPerimeter=0;fontSize=10;" parent="1" source="10" target="6" edge="1">
                    <mxGeometry relative="1" as="geometry"/>
                </mxCell>
                <mxCell id="27" style="edgeStyle=none;html=1;entryX=0;entryY=0.5;entryDx=0;entryDy=0;entryPerimeter=0;fontColor=#0000FF;" parent="1" source="22" target="6" edge="1">
                    <mxGeometry relative="1" as="geometry"/>
                </mxCell>
                <mxCell id="22" value="" style="shape=cylinder3;whiteSpace=wrap;html=1;boundedLbl=1;backgroundOutline=1;size=4;fontSize=10;direction=south;fillColor=#f8cecc;strokeColor=#b85450;sketch=1;" parent="1" vertex="1">
                    <mxGeometry x="-510" y="170" width="60" height="30" as="geometry"/>
                </mxCell>
                <mxCell id="28" style="edgeStyle=none;html=1;fontColor=#0000FF;exitX=0;exitY=0.5;exitDx=0;exitDy=0;exitPerimeter=0;" parent="1" source="16" edge="1">
                    <mxGeometry relative="1" as="geometry">
                        <mxPoint x="-471.9677419354839" y="450" as="sourcePoint"/>
                        <mxPoint x="-481" y="310" as="targetPoint"/>
                    </mxGeometry>
                </mxCell>
                <mxCell id="31" value="" style="shape=cylinder3;whiteSpace=wrap;html=1;boundedLbl=1;backgroundOutline=1;size=4;fontSize=10;direction=south;fillColor=#fff2cc;strokeColor=#d6b656;sketch=1;" parent="1" vertex="1">
                    <mxGeometry x="-390" y="450" width="60" height="30" as="geometry"/>
                </mxCell>
                <mxCell id="48" style="edgeStyle=orthogonalEdgeStyle;html=1;fontColor=#0000FF;" parent="1" source="32" target="13" edge="1">
                    <mxGeometry relative="1" as="geometry"/>
                </mxCell>
                <mxCell id="49" style="edgeStyle=orthogonalEdgeStyle;html=1;fontColor=#0000FF;" parent="1" source="34" edge="1">
                    <mxGeometry relative="1" as="geometry">
                        <mxPoint x="-95" y="460" as="targetPoint"/>
                    </mxGeometry>
                </mxCell>
                <mxCell id="34" value="" style="shape=cylinder3;whiteSpace=wrap;html=1;boundedLbl=1;backgroundOutline=1;size=4;fontSize=10;direction=south;fillColor=#e1d5e7;strokeColor=#9673a6;sketch=1;" parent="1" vertex="1">
                    <mxGeometry x="-135" y="150" width="60" height="30" as="geometry"/>
                </mxCell>
                <mxCell id="35" value="" style="shape=cylinder3;whiteSpace=wrap;html=1;boundedLbl=1;backgroundOutline=1;size=4;fontSize=10;direction=south;fillColor=#f8cecc;strokeColor=#b85450;" parent="1" vertex="1">
                    <mxGeometry x="-485" y="190" width="60" height="30" as="geometry"/>
                </mxCell>
                <mxCell id="36" value="" style="shape=cylinder3;whiteSpace=wrap;html=1;boundedLbl=1;backgroundOutline=1;size=4;fontSize=10;direction=south;fillColor=#f8cecc;strokeColor=#b85450;" parent="1" vertex="1">
                    <mxGeometry x="-504" y="458" width="60" height="30" as="geometry"/>
                </mxCell>
                <mxCell id="37" value="" style="shape=cylinder3;whiteSpace=wrap;html=1;boundedLbl=1;backgroundOutline=1;size=4;fontSize=10;direction=south;fillColor=#f8cecc;strokeColor=#b85450;sketch=1;" parent="1" vertex="1">
                    <mxGeometry x="-494" y="469.5" width="60" height="30" as="geometry"/>
                </mxCell>
                <mxCell id="38" value="" style="shape=cylinder3;whiteSpace=wrap;html=1;boundedLbl=1;backgroundOutline=1;size=4;fontSize=10;direction=south;fillColor=#f8cecc;strokeColor=#b85450;sketch=1;" parent="1" vertex="1">
                    <mxGeometry x="-470" y="320" width="60" height="30" as="geometry"/>
                </mxCell>
                <mxCell id="30" value="" style="shape=cylinder3;whiteSpace=wrap;html=1;boundedLbl=1;backgroundOutline=1;size=4;fontSize=10;direction=south;fillColor=#fff2cc;strokeColor=#d6b656;sketch=1;" parent="1" vertex="1">
                    <mxGeometry x="-390" y="280" width="60" height="30" as="geometry"/>
                </mxCell>
                <mxCell id="39" value="" style="shape=cylinder3;whiteSpace=wrap;html=1;boundedLbl=1;backgroundOutline=1;size=4;fontSize=10;direction=south;fillColor=#f8cecc;strokeColor=#b85450;sketch=1;" parent="1" vertex="1">
                    <mxGeometry x="-500" y="180" width="60" height="30" as="geometry"/>
                </mxCell>
                <mxCell id="40" value="" style="shape=cylinder3;whiteSpace=wrap;html=1;boundedLbl=1;backgroundOutline=1;size=4;fontSize=10;direction=south;fillColor=#f8cecc;strokeColor=#b85450;sketch=1;" parent="1" vertex="1">
                    <mxGeometry x="-485" y="300" width="60" height="30" as="geometry"/>
                </mxCell>
                <mxCell id="42" value="?" style="shape=cylinder3;whiteSpace=wrap;html=1;boundedLbl=1;backgroundOutline=1;size=9.487257215711821;fontSize=21;sketch=1;fillColor=#f5f5f5;fontColor=#333333;strokeColor=#666666;" parent="1" vertex="1">
                    <mxGeometry x="40" y="190" width="60" height="80" as="geometry"/>
                </mxCell>
                <mxCell id="43" value="?" style="shape=cylinder3;whiteSpace=wrap;html=1;boundedLbl=1;backgroundOutline=1;size=9.487257215711821;fontSize=21;sketch=1;fillColor=#f5f5f5;fontColor=#333333;strokeColor=#666666;" parent="1" vertex="1">
                    <mxGeometry x="40" y="330" width="60" height="80" as="geometry"/>
                </mxCell>
                <mxCell id="44" value="?" style="shape=cylinder3;whiteSpace=wrap;html=1;boundedLbl=1;backgroundOutline=1;size=9.487257215711821;fontSize=21;sketch=1;fillColor=#f5f5f5;fontColor=#333333;strokeColor=#666666;" parent="1" vertex="1">
                    <mxGeometry x="40" y="530" width="60" height="80" as="geometry"/>
                </mxCell>
                <mxCell id="32" value="" style="shape=cylinder3;whiteSpace=wrap;html=1;boundedLbl=1;backgroundOutline=1;size=4;fontSize=10;direction=south;fillColor=#e1d5e7;strokeColor=#9673a6;sketch=1;" parent="1" vertex="1">
                    <mxGeometry x="-140" y="280" width="60" height="30" as="geometry"/>
                </mxCell>
                <mxCell id="24" value="Total Throughput" style="shape=loopLimit;whiteSpace=wrap;html=1;shadow=0;sketch=1;fontColor=#333333;rotation=90;fillColor=#f5f5f5;strokeColor=#666666;" parent="1" vertex="1">
                    <mxGeometry x="-712" y="220" width="270" height="30" as="geometry"/>
                </mxCell>
                <mxCell id="50" value="" style="edgeStyle=orthogonalEdgeStyle;html=1;entryX=0.5;entryY=1;entryDx=0;entryDy=0;entryPerimeter=0;fontColor=#0000FF;endArrow=none;" parent="1" source="8" target="24" edge="1">
                    <mxGeometry relative="1" as="geometry">
                        <mxPoint x="-620" y="150" as="sourcePoint"/>
                        <mxPoint x="-440" y="135" as="targetPoint"/>
                    </mxGeometry>
                </mxCell>
                <mxCell id="51" value="ack ?" style="text;html=1;align=center;verticalAlign=middle;resizable=0;points=[];autosize=1;strokeColor=none;fillColor=none;fontSize=21;fontColor=#0000FF;" parent="1" vertex="1">
                    <mxGeometry x="-815" y="345" width="70" height="30" as="geometry"/>
                </mxCell>
                <mxCell id="52" value="replication-factor" style="text;html=1;align=center;verticalAlign=middle;resizable=0;points=[];autosize=1;strokeColor=none;fillColor=none;fontSize=10;fontColor=#0000FF;" parent="1" vertex="1">
                    <mxGeometry x="-520" y="390" width="90" height="20" as="geometry"/>
                </mxCell>
                <mxCell id="53" value="retention time&lt;br&gt;&lt;br&gt;retention size" style="text;html=1;align=center;verticalAlign=middle;resizable=0;points=[];autosize=1;strokeColor=none;fillColor=none;fontSize=10;fontColor=#0000FF;" parent="1" vertex="1">
                    <mxGeometry x="110" y="200" width="80" height="40" as="geometry"/>
                </mxCell>
                <mxCell id="54" value="I/O Throughput" style="shape=loopLimit;whiteSpace=wrap;html=1;shadow=0;sketch=1;fontColor=#333333;rotation=90;fillColor=#f5f5f5;strokeColor=#666666;" parent="1" vertex="1">
                    <mxGeometry x="-80" y="145" width="110" height="40" as="geometry"/>
                </mxCell>
                <mxCell id="56" value="I/O Throughput" style="shape=loopLimit;whiteSpace=wrap;html=1;shadow=0;sketch=1;fontColor=#333333;rotation=90;fillColor=#f5f5f5;strokeColor=#666666;" parent="1" vertex="1">
                    <mxGeometry x="-75" y="285" width="110" height="40" as="geometry"/>
                </mxCell>
                <mxCell id="57" value="I/O Throughput" style="shape=loopLimit;whiteSpace=wrap;html=1;shadow=0;sketch=1;fontColor=#333333;rotation=90;fillColor=#f5f5f5;strokeColor=#666666;" parent="1" vertex="1">
                    <mxGeometry x="-75" y="450" width="110" height="40" as="geometry"/>
                </mxCell>
                <mxCell id="59" style="edgeStyle=orthogonalEdgeStyle;html=1;" edge="1" parent="1" source="58" target="24">
                    <mxGeometry relative="1" as="geometry"/>
                </mxCell>
                <mxCell id="58" value="Kafka Source Connector" style="whiteSpace=wrap;html=1;aspect=fixed;fontSize=10;fillColor=#ffe6cc;strokeColor=#d79b00;sketch=1;shadow=0;" vertex="1" parent="1">
                    <mxGeometry x="-705" y="275" width="65" height="65" as="geometry"/>
                </mxCell>
            </root>
        </mxGraphModel>
    </diagram>
</mxfile>